<?xml version="1.0" encoding="UTF-8"?><svg id="Layer_1" xmlns="http://www.w3.org/2000/svg" viewBox="0 0 400 400"><path d="m352.22,217.81h.25c26.19,0,47.53-21.31,47.53-47.53s-20.02-46.61-45.02-47.66h-.09c-.61-.03-1.23-.06-1.87-.06-.43,0-.86.03-1.29.06l-50.7.28c-20.97,0-32.43,9.21-37.98,18.88l-29.29,52.97c-1.41,2.55-5.07,2.58-6.51.06l-38.08-65.74c-4.18-7.4-13.6-9.98-20.97-5.68-7.22,4.24-9.43,13.73-5.31,21l43.73,79.84c.18.34.34.68.52,1.01,4.76,10.38-3.22,21.99-14.62,22.39-.77.03-1.54.03-2.36,0-2.92-.09-5.9-.86-8.87-2.27-5.47-2.58-10.29-7.22-13.57-13.11l-49.59-94.33c-4.94-9.43-14.71-15.32-25.33-15.32h-1.81c-10.19,0-19.59,5.56-24.47,14.52L1.92,256.65c-2.12,3.9-2.58,8.57-.89,12.65,1.29,3.1,3.56,5.77,6.72,7.52,2.33,1.26,4.82,1.87,7.31,1.87,5.37,0,10.59-2.86,13.36-7.89l58.16-106.68c1.93-3.5,6.97-3.5,8.87,0l45.45,83.03c6.45,11.61,15.91,20.57,27.3,25.92,5.34,2.52,10.87,4.11,16.43,4.82h12.9c.64-.09,1.32-.15,1.97-.28,15.32-2.36,28.53-12.07,36.05-25.64l48.52-87.45c4.05-7.28,11.73-11.79,20.05-11.79h47.07c.58.06,1.2.12,1.81.12,9.37,0,16.7,7.65,16.7,17.41s-7.74,17.23-17.23,17.23h-35.99c-6.08,0-11.58,3.62-13.94,9.24-2.36,5.59-1.17,12.07,3.07,16.43l58.5,60.46c2.98,3.07,6.91,4.61,10.87,4.61s7.58-1.41,10.53-4.27c6.02-5.8,6.17-15.41.34-21.4l-33.62-34.76Z"/></svg>