<?xml version="1.0" encoding="UTF-8"?><svg id="Layer_1" xmlns="http://www.w3.org/2000/svg" viewBox="0 0 400 400"><path d="m389.35,190.14c.72.58,1.39,1.04,1.96,1.59,2.63,2.56,5.16,5.22,7.87,7.7,1.23,1.12.96,1.82-.04,2.8-3.36,3.31-6.69,6.65-9.99,10.02-12.87,13.15-25.71,26.34-38.6,39.47-18.64,18.99-37.33,37.93-55.99,56.91-1.96,1.99-3.81,4.09-5.82,6.04-3.19,3.1-7.21,4.68-11.4,5.7-2.45.6-5.04.72-7.58.79-3.83.11-7.67-.08-11.51,0-5.35.1-10.17-1.54-14.69-4.24-1-.6-1.72-.69-2.83-.1-5.9,3.16-12.2,4.72-18.93,4.41-4.35-.2-8.75.07-13.03-.56-3.2-.48-6.27-1.99-9.33-3.21-1.07-.43-1.88-.55-2.93-.02-4.88,2.5-10.04,3.9-15.57,3.79-4.36-.08-8.78.34-13.06-.24-3.73-.5-7.37-1.92-10.94-3.23-1.51-.55-2.56-.82-4.16-.02-3.96,1.97-8.19,3.42-12.68,3.37-6.2-.07-12.43-.07-18.59-.69-5.29-.53-9.67-3.35-13.36-7.26-11.11-11.78-22.25-23.52-33.41-35.24-6.98-7.34-14.04-14.61-21.03-21.94-3.7-3.88-7.3-7.85-11.02-11.69-1.07-1.1-1.05-1.78.03-2.85,18.55-18.43,37.08-36.87,55.6-55.34,8.16-8.14,16.27-16.34,24.43-24.49,6.99-6.98,15.35-11.7,25.18-12.18,7.52-.36,14.78,2.08,20.41,7.55,7.01,6.82,13.77,13.89,20.64,20.86,14.13,14.36,28.25,28.74,42.41,43.07,3.47,3.51,6.95,7.04,10.7,10.24,3.85,3.28,8.48,4.64,13.51,3.37,3.83-.97,7.05-3.27,10.06-5.76,2.15-1.78,4.13-3.75,6.21-5.62.82-.74.63-1.4-.05-2.08-1.52-1.52-3.04-3.05-4.56-4.58-19.91-20.11-39.81-40.24-59.73-60.34-18.44-18.61-37.03-37.06-55.28-55.85-8.3-8.54-22.3-9.27-30.88-2.73-2.62,2-4.89,4.47-7.22,6.84-14.92,15.14-29.8,30.32-44.71,45.47-13.03,13.24-26.09,26.44-39.13,39.67-6.21,6.3-12.4,12.64-18.6,18.95-1.62,1.65-1.64,1.63-3.28,0-2.35-2.34-4.69-4.7-7.06-7.03-1.84-1.81-1.84-2.04,0-3.91,9.38-9.57,18.74-19.14,28.13-28.7,15.22-15.5,30.48-30.95,45.66-46.48,11.44-11.7,22.83-23.45,34.15-35.27,4.56-4.77,10.29-6.91,16.54-7.78,6.99-.97,14.06-.78,20.96.68,3.33.7,6.42,2.53,9.66,3.75.65.24,1.63.29,2.2-.02,7.76-4.3,16.09-5.23,24.78-4.7,4.14.25,8.2.61,12.15,1.91.72.24,1.53.35,2.12.77,2.49,1.79,4.79,1.53,7.56.27,6.82-3.11,14.08-3.47,21.49-2.95,4.01.28,7.98.57,11.8,1.88,1.47.51,2.95,1.07,4.32,1.8,1.31.7,2.46.74,3.79.1,6.09-2.91,12.55-4.25,19.26-3.92,5.19.25,10.41.25,15.48,1.98,3.96,1.35,7.36,3.34,10.21,6.4,7.78,8.35,15.59,16.67,23.42,24.97,13.54,14.36,27.11,28.69,40.66,43.05,1.75,1.85,1.73,1.96-.21,3.9-24.35,24.32-48.71,48.64-73.07,72.95-3.25,3.25-6.42,6.62-9.93,9.57-5.24,4.4-11.23,7.52-18.09,8.45-7.46,1.01-14.44-.53-20.75-4.7-5.29-3.49-9.52-8.18-13.94-12.64-16.68-16.83-33.33-33.69-49.98-50.55-4.09-4.14-8.36-8.13-12.17-12.53-3.45-3.99-11.49-5.51-16.92-2.87-4.28,2.08-7.66,5.23-11.07,8.4-3.59,3.35-3.24,2.65-.08,5.84,20.65,20.86,41.29,41.73,61.92,62.61,15.38,15.58,30.73,31.19,46.11,46.77,3.72,3.77,7.24,7.79,11.27,11.19,9.69,8.18,23.63,7.3,32.53-1.77,13.43-13.67,26.8-27.39,40.26-41.03,13.13-13.3,26.37-26.5,39.53-39.78,8.24-8.32,16.41-16.7,24.61-25.06,1.21-1.23,2.36-2.53,3.62-3.89Zm-158.46,114.89c-.45-.57-.64-.86-.87-1.09-2.53-2.57-5.08-5.13-7.61-7.7-14.18-14.39-28.34-28.8-42.55-43.17-20.71-20.94-41.46-41.84-62.17-62.79-.99-1-1.64-.94-2.57.02-2.67,2.77-5.4,5.47-8.1,8.2q-2.38,2.42-.03,4.75c.25.25.49.49.74.74,19.97,20.21,39.96,40.4,59.89,60.65,11.88,12.07,23.62,24.29,35.55,36.31,1.88,1.89,4.29,3.4,6.7,4.59,5.73,2.81,11.69,2.38,17.64.59,1.06-.32,2.11-.69,3.38-1.11Zm-62.17-209.73c1.35,1.47,2.2,2.49,3.14,3.43,29.97,30.23,59.95,60.46,89.92,90.69,6.68,6.74,13.32,13.52,19.94,20.33.98,1.01,1.58,1.17,2.62.01,2.58-2.85,5.33-5.53,7.98-8.32,2.39-2.51,2.97-2.07-.04-5.06-11.2-11.12-22.31-22.33-33.43-33.53-20.83-20.99-41.7-41.94-62.43-63.03-5.99-6.09-12.99-8.03-21.12-6.5-2.06.39-4.04,1.2-6.59,1.98Zm54.75-2.86c-2.87.6-5.75,1.2-8.62,1.81-1.29.27-1.39.82-.47,1.76,4,4.06,7.94,8.18,11.94,12.23,9.48,9.61,18.98,19.21,28.48,28.8,9.42,9.51,18.85,19.01,28.27,28.52,7.01,7.07,14.04,14.11,20.97,21.25,1.1,1.13,1.72,1.25,2.78.15,2.74-2.86,5.52-5.67,8.32-8.47.92-.92.82-1.67-.05-2.52-1.58-1.55-3.12-3.13-4.68-4.7-23.76-23.97-47.53-47.93-71.28-71.91-4.31-4.36-9.43-6.66-15.68-6.92Zm-37.43,213.18c-.63-.81-1.08-1.53-1.67-2.12-6.35-6.41-12.75-12.78-19.09-19.2-23.37-23.65-46.72-47.31-70.06-70.99-.99-1-1.68-.93-2.59.04-2.22,2.38-4.48,4.73-6.77,7.04-2.65,2.66-2.63,2.6.02,5.27,24.88,25.11,49.79,50.19,74.59,75.38,6.59,6.7,17.26,8.04,25.58,4.57Zm-42.43.24c-.96-1.16-1.54-1.99-2.24-2.71-16.63-16.87-33.26-33.74-49.91-50.59-5.77-5.84-11.59-11.62-17.37-17.45-.83-.84-1.56-1.35-2.62-.27-2.57,2.61-5.21,5.16-7.8,7.75-1.96,1.97-1.91,1.94-.02,3.85,17.58,17.81,35.24,35.55,52.66,53.52,5.92,6.1,12.86,8.23,20.98,7.36,1.97-.21,3.89-.89,6.33-1.47Zm112.42-211.02c1.32,1.4,2.5,2.7,3.74,3.94,14.34,14.38,28.7,28.75,43.04,43.14,7.64,7.66,15.27,15.34,22.9,23.03.89.9,1.68,1.6,2.88.35,2.79-2.89,5.62-5.73,8.49-8.54.83-.81.77-1.46,0-2.21-.96-.94-1.9-1.89-2.84-2.84-17.34-17.47-34.71-34.91-51.99-52.44-7.12-7.23-16.93-7.86-26.22-4.43Z"/></svg>