<?xml version="1.0" encoding="UTF-8"?><svg id="Layer_1" xmlns="http://www.w3.org/2000/svg" viewBox="0 0 400 400"><path d="m4.17,338.32c0-1.68,0-2.99,0-4.3,0-43.33,0-86.67,0-130q0-4.38,4.23-4.38c19.4,0,38.81,0,58.21,0,13.19,0,17.59,4.46,17.62,17.86.03,14.85.01,29.71,0,44.56,0,1.33-.05,2.66-.12,3.99-.5,8.89-4.93,13.38-13.71,13.9-.88.05-1.77.15-3.22.27,6.41,17.18,12.7,34.03,18.99,50.88.25,0,.5,0,.75-.01.29-1.23.6-2.46.86-3.7,8.6-41.48,17.22-82.95,25.72-124.45.56-2.71,1.64-3.4,4.18-3.35,8.74.14,17.49.14,26.24,0,2.45-.04,3.51.64,4.03,3.21,8.97,43.7,18.04,87.38,27.09,131.07.2.98.42,1.95,1.27,2.95.06-.91.17-1.83.17-2.74,0-43.33,0-86.67-.01-130q0-4.43,4.47-4.43c15.99,0,31.97-.06,47.95.05,3.6.02,7.25.32,10.78,1.02,10.41,2.07,16.44,8.39,18.36,18.96.4,2.2.61,4.47.61,6.71.04,28.68.07,57.37,0,86.05-.02,9.28-2.39,17.83-11.13,22.29-4.34,2.21-9.57,3.57-14.42,3.63-28.15.33-56.3.14-84.44.23-2.39,0-3.11-.97-3.4-3.1-.68-4.97-1.59-9.9-2.23-14.88-.27-2.1-1.22-2.72-3.17-2.69-6.03.08-12.07.1-18.1,0-2.13-.04-3.05.73-3.34,2.9-.66,5.07-1.59,10.11-2.26,15.18-.25,1.92-1.04,2.57-2.92,2.57-18.1-.05-36.19,0-54.29-.12-.95,0-2.43-1.07-2.76-1.98-6-16.41-11.88-32.87-17.74-49.33-.33-.94-.47-2-.48-3-.04-6.66.05-13.32-.06-19.98-.04-2.29.74-3.08,2.96-2.99,3.41.14,6.84-.04,10.25.06,2.03.06,2.9-.65,2.89-2.81-.07-9.94-.06-19.87,0-29.81,0-1.95-.65-2.76-2.63-2.73-4.82.09-9.65.06-14.48.02-1.63-.02-2.44.6-2.35,2.33.06,1.02,0,2.05,0,3.07,0,34.22,0,68.43,0,102.65,0,1.4,0,2.8,0,4.4H4.17Zm202.47-69.05c0,13.31,0,26.61,0,39.92,0,1.62-.31,3.43,2.23,3.4,4.22-.06,8.45.14,12.65-.11,4.66-.27,6.86-2.74,6.87-7.58.05-23.85.05-47.7,0-71.54-.01-4.95-2.4-7.31-7.27-7.45-3.71-.11-7.44.13-11.15-.08-2.71-.15-3.41.88-3.39,3.53.11,13.3.05,26.61.05,39.92Zm-75.48-22.78c-.28-.01-.56-.02-.84-.03-2.35,14.86-4.7,29.72-7.15,45.2,4.46,0,8.43-.05,12.4.02,2.08.04,2.65-.94,2.32-2.85-.41-2.42-.77-4.84-1.16-7.26-1.86-11.69-3.72-23.38-5.58-35.08Z"/><path d="m395.39,269.29c0,17.31,0,34.62,0,51.93,0,1.53.02,3.08-.17,4.6-1.06,8.4-5.58,12.63-13.9,12.67-18.09.08-36.19.08-54.28,0-8.22-.03-12.72-4.24-13.68-12.47-.18-1.52-.27-3.06-.27-4.59-.01-34.72-.03-69.44.02-104.17,0-2.64.25-5.33.81-7.91,1.14-5.27,4.62-8.26,9.77-9.14,2.17-.37,4.4-.55,6.6-.55,15.78-.04,31.56-.04,47.34-.02,13.42.02,17.74,4.41,17.76,18.02.02,17.21,0,34.41,0,51.62Zm-30.44-.02c0-13.32-.06-26.64.05-39.95.02-2.71-.8-3.58-3.44-3.49-5.12.18-10.25.13-15.38.02-2.12-.04-3.07.52-3.07,2.9.06,26.94.05,53.88,0,80.83,0,2.23.73,3.11,2.97,3.06,5.12-.11,10.26-.19,15.38.02,2.88.12,3.54-1.02,3.52-3.74-.11-13.21-.05-26.43-.05-39.64Z"/><path d="m118.21,122.56c.04,34.22-25.77,61.13-58.86,61.38C27.35,184.18.73,156.83.01,124.35c-.71-32.45,24.1-62.59,59.24-62.71,32.75-.11,58.91,26.97,58.95,60.92Zm-58.86,35.35c23.54-.91,41.42-11.81,53.4-32.85.98-1.73,1.14-3.15,0-4.78-2.56-3.66-4.76-7.64-7.65-11-27.92-32.5-77.41-27.42-98.85,10.03-1.39,2.42-1.4,4.31.01,6.7,12.01,20.24,29.48,30.97,53.08,31.9Z"/><path d="m288.94,118.61c2.58.98,4.76,1.73,6.88,2.62,11.13,4.68,19.47,11.82,19.84,25.15.38,13.89-6.11,23.83-18,30.24-7.82,4.21-16.32,5.7-25.05,5.74-17.79.09-35.58.03-53.37.02-1.23,0-2.83.42-2.75-1.76.08-2.2,1.76-1.56,2.92-1.58,4.22-.06,8.45-.11,12.66,0,2.09.06,2.79-.65,2.79-2.81-.05-35.75-.04-71.49-.05-107.24,0-.6-.1-1.2-.21-2.35-3.63,0-7.2,0-10.76,0-1.81,0-3.64.15-5.42-.09-.71-.09-1.3-1.06-1.94-1.63.6-.6,1.19-1.21,1.8-1.8.05-.05.19-.01.3-.01,19.39.16,38.8.03,58.18.59,8.84.26,17.18,3.21,24.38,8.77,12.25,9.46,13.87,27.65,2.97,37.52-3.51,3.18-8.18,5.03-12.34,7.44-.75.44-1.61.67-2.82,1.15Zm-29.7,1.38c-.34,1-.51,1.28-.51,1.56-.03,18.42-.02,36.84-.07,55.26,0,1.81.81,2.25,2.4,2.23,4.22-.07,8.44.15,12.65-.07,11.69-.62,16.78-5.42,18.48-17.3.43-3.03.94-6.13.75-9.16-.43-6.7-.77-13.48-2.11-20.02-1.2-5.84-5.2-10.29-11.18-11.18-6.77-1.01-13.7-.94-20.4-1.32Zm-.57-3.25c6.09,0,11.72.31,17.3-.08,7.12-.5,10.44-3.55,12.06-10.72,1.96-8.68,1.96-17.48.54-26.23-1.06-6.51-4.89-10.84-11.38-11.88-4.83-.78-9.79-.72-14.67-1.21-2.94-.29-3.97.55-3.92,3.81.21,12.38.08,24.78.08,37.16,0,2.95,0,5.91,0,9.15Z"/><path d="m300.96,338.36h-29.78c-.05-1.14-.14-2.23-.14-3.31,0-43.61,0-87.22,0-130.84q0-4.57,4.38-4.58c7.64,0,15.27.07,22.91-.04,2.27-.04,2.93.75,2.93,3.01-.05,44.33-.04,88.66-.05,132.99,0,.8-.13,1.6-.24,2.78Z"/><path d="m390.68,61.43c.11,1.31.2,1.88.2,2.46,0,13.52,0,27.04,0,40.56,0,.31.09.66-.03.91-.29.65-.67,1.26-1.01,1.89-.43-.64-1.15-1.24-1.25-1.93-1.2-8.63-3.89-16.77-8.36-24.17-2.29-3.8-5.08-7.39-8.18-10.54-4.92-5.01-11.14-6.74-18.03-5.61-5.78.95-10.16,4.02-12.33,9.63-3.95,10.19-3.19,22.32,9.57,28.73,5.91,2.97,12.3,4.98,18.47,7.41,3.65,1.44,7.37,2.73,10.96,4.31,13.52,5.96,19.9,16.31,19.25,31.5-.74,17.4-15.76,35.01-32.58,37.3-6.73.92-13.17-.72-19.48-3.01-3.49-1.27-7-2.53-10.58-3.49-4.15-1.11-7.74.07-10.52,3.51-.25.31-.54.61-.85.87-.13.11-.36.1-.84.21-.06-1.01-.18-1.97-.18-2.93-.01-13.52,0-27.04,0-40.56,0-.41-.1-.86.03-1.22.27-.76.67-1.48,1.02-2.22.49.63,1.21,1.19,1.43,1.9,1.09,3.62,1.84,7.35,3.08,10.91,3.22,9.25,7.49,17.94,14.61,24.78,7.89,7.58,17.06,10.22,27.48,6.4,7.39-2.72,11.46-8.4,12.53-16.26,1.11-8.15-1.37-15.02-8.38-19.27-5.14-3.11-10.82-5.32-16.34-7.74-5.07-2.22-10.39-3.89-15.35-6.34-15.87-7.82-21.82-20.5-18.06-38.13,2.43-11.39,7.8-20.85,18.17-26.59,7.3-4.04,15.03-4.06,22.82-1.57,2.87.92,5.66,2.15,8.56,2.95,5.32,1.48,10.19.93,14.18-4.66Z"/><path d="m211.65,183.28c-.39-.38-.69-.6-.91-.89-4.23-5.84-8.17-7.13-14.89-4.74-1.8.64-3.54,1.45-5.27,2.28-14.73,7.05-28.64,5.23-41.41-4.6-15.41-11.86-23.49-27.87-23.41-47.58.1-23.7,8.67-43.51,27.77-57.83,11.84-8.88,24.59-11.16,38.31-4.67.91.43,1.86.78,2.8,1.13,6.25,2.31,12.32,3.5,17.31-3.64.12,1.39.25,2.15.25,2.91.01,12.9,0,25.81,0,38.71,0,.51.12,1.08-.06,1.52-.22.57-.68,1.04-1.03,1.55-.47-.43-1.13-.78-1.37-1.32-.41-.92-.55-1.96-.83-2.94-2.94-10.4-6.68-20.41-13.63-28.82-3.99-4.82-8.77-8.48-15.1-9.36-9.42-1.31-16.85,2.66-21.74,11.5-3.46,6.25-5.26,13.07-6.24,20.1-2.78,19.86-3.2,39.77-.28,59.66.53,3.61,1.56,7.23,2.91,10.61,5.27,13.26,18.74,17.97,31.08,11.04,6.47-3.63,10.96-9.22,14.59-15.58,4.49-7.86,7.36-16.34,9.07-25.26.15-.8,1-1.45,1.53-2.17.33.66.94,1.32.94,1.98.05,15.16.04,30.32.02,45.47,0,.25-.21.5-.41.96Z"/><path d="m89.76,122.89c-.14,17.59-13.7,31.09-31.09,30.97-16.68-.12-30.26-14.32-30.1-31.47.15-17.21,14.04-31,31.04-30.83,16.85.16,30.29,14.13,30.15,31.34Z"/></svg>