<?xml version="1.0" encoding="UTF-8"?><svg id="Layer_1" xmlns="http://www.w3.org/2000/svg" viewBox="0 0 400 400"><path d="m0,199.68C-.27,90.14,88.54,1.5,197.02.02c113.84-1.56,204.63,91.67,202.96,203.04-1.64,109.04-91.83,198.62-203.2,196.92C88.25,398.32-.65,309.36,0,199.68Zm194.29-67.52c-1.81-.98-4.65-2.75-7.67-4.12-11.54-5.25-24.09-3.69-31.92,4.09-10.38,10.31-14.08,22.78-11.15,37.07,2.76,13.45,10.14,24.58,18.44,35.17,3.36,4.3,6.87,8.48,10.11,12.47-12.6-2.7-25.13-5.91-37.85-7.95-12.2-1.95-24.44-1.52-35.91,4.28-17.33,8.77-24.68,30.09-15.2,46.07,3.1,5.23,8.07,9.35,12.59,14.44-.11.36-.55,1.67-.94,3-4.31,14.57,2.02,27.92,16.06,33.82,14.89,6.25,29.12,4.66,42.64-3.86,12.89-8.12,23.18-19.06,32.73-30.76.98-1.2,1.99-2.38,3.36-4.01-.26,35.78,8.71,66.43,40.05,87.82,1.72-6.03,3.3-11.17,4.57-16.39.2-.82-.79-2.27-1.62-2.95-10.66-8.65-17.18-19.97-21.16-32.86-3.42-11.09-4.6-22.47-3.29-34.56,1.63,1.01,2.51,2.65,3.8,3.84,10.55,9.72,20.94,19.62,31.83,28.93,10.33,8.83,22.56,11.85,35.95,8.99,17.18-3.67,28.83-21.42,24.51-38.32-1.2-4.71.04-6.43,3.37-8.96,9.52-7.22,12.64-17.87,9.2-29.42-5.71-19.2-23.5-31.25-44.46-30.03-13.38.77-25.85,5.16-38.23,9.84-2.78,1.05-5.55,2.13-8.32,3.2,8.39-9.53,15.54-19.57,21.14-30.73,8.46-16.84,11.08-33.72,1.06-50.95-8.09-13.9-20.88-20.72-34.74-16.86-6.47,1.8-12.23,6.16-18.94,9.68Zm172.87,11.18c-1.26-3.45-2.35-6.73-3.63-9.93-2.02-5.02-9.58-8.21-14.72-6.17-6.59,2.62-13.14,5.33-19.66,8.11-4.18,1.78-5.92,6.35-4.2,10.5,1.69,4.06,3.37,8.12,5.16,12.45-7.7,3.18-15.08,6.23-22.75,9.41-1.64-3.96-3.09-7.49-4.56-11.04,3.4-1.55,6.38-2.92,9.6-4.38-1.3-3-2.43-5.62-3.67-8.48-6.09,2.58-11.76,4.98-18.32,7.75,2.22,3.16,4.45,5.5,5.67,8.29,1.43,3.28,1.72,7.03,2.95,10.41,1.52,4.19,8.77,7.51,12.95,5.89,7.77-3.02,15.48-6.22,23.1-9.58,4.01-1.77,5.5-6.61,3.75-10.71-1.68-3.94-3.32-7.9-5.05-12.05,7.03-2.92,13.78-5.73,20.83-8.66,1.61,3.8,3.1,7.32,4.64,10.98-3.47,1.58-6.57,2.98-9.86,4.48,1.37,3.03,2.54,5.6,3.79,8.37,6.23-2.64,11.93-5.06,18.13-7.68-1.62-3.11-2.97-5.7-4.14-7.96ZM57.41,96.52c2.34,1.98,4.41,3.72,6.53,5.51,1.36-1.26,2.44-2.28,3.7-3.46,14.1,12.21,28.06,24.3,42.11,36.46-1.11,1.49-1.98,2.67-3.07,4.14,2.23,1.89,4.27,3.61,6.49,5.49,7.31-8.32,14.27-16.24,21.52-24.49-4.98-4.3-9.67-8.34-14.57-12.58-1.95,2.25-3.63,4.18-5.45,6.28,2.75,2.51,5.17,4.72,7.73,7.05-2.16,2.46-4.06,4.63-6.18,7.04-6.21-5.42-12.15-10.61-18.16-15.86,2.06-2.38,3.93-4.55,5.95-6.87-2.33-2-4.31-3.71-6.52-5.62-2.12,2.29-4.07,4.4-6.22,6.72-5.89-5.12-11.63-10.12-17.48-15.21,2.08-2.34,3.96-4.48,5.91-6.68,2.97,2.49,5.48,4.61,8.21,6.9,2.07-2.37,3.84-4.4,5.82-6.66-5.05-4.37-9.74-8.44-14.7-12.73-7.27,8.26-14.33,16.27-21.63,24.56Zm135.85-5.15c-.1,1.51-.09,2.75-.28,3.96-.6,3.76,1.02,4.98,4.66,4.61,2.76-.28,5.57-.05,8.35-.05q7.33,0,6.67-7.42c-.03-.37-.34-.71-.53-1.1-1.26-.16-2.47-.32-3.95-.51v-55.2h5.99c0,2.69.05,5.16-.01,7.63-.09,3.41,2.42,2.85,4.39,2.78,1.99-.07,4.83,1.01,4.82-2.75-.02-4.74.14-9.48-.13-14.2-.06-.97-1.69-2.63-2.61-2.64-11.7-.18-23.41-.16-35.11,0-.86.01-2.4,1.51-2.43,2.36-.22,5.54-.11,11.08-.11,16.95,1.75.13,3.12.16,4.46.35,3.75.51,5.46-.89,4.94-4.83-.24-1.85-.04-3.76-.04-5.56h5.51v55.21c-1.58.14-2.82.26-4.57.42Zm-137.17,43.43c-5.81-2-11.02-3.92-16.33-5.48-.84-.24-2.8.97-3.14,1.91-.76,2.14-.46,4.67-1.26,6.78-1.38,3.66-3.33,7.09-4.9,10.68-.36.81-.56,2.15-.14,2.77,2.99,4.36,5.1,9.21,11.17,11.01,14.13,4.21,28.14,8.9,41.96,14.03,5.1,1.89,9.36,1.37,13.91-.72,2.66-1.23,8.5-15.63,7.15-18.17-3.25-6.15-7.61-10.9-15.7-11.07-.86,2.56-1.77,5.24-2.76,8.18,3.58,1.33,6.76,2.51,9.94,3.69-1.27,3.6-2.36,6.72-3.61,10.27-17.87-6.04-35.43-11.97-53.19-17.97,1.41-4,2.59-7.36,3.8-10.82,3.6,1.12,6.75,2.1,10.22,3.18.97-2.79,1.82-5.24,2.88-8.28Zm219.92-14.46c12.94-13.59,25.68-26.99,38.63-40.6,2.94,2.76,5.63,5.28,8.51,7.99-2.53,2.76-4.83,5.27-7.28,7.95,2.39,2.12,4.4,3.91,6.56,5.83,2.45-2.58,4.56-4.79,6.66-7.01,2.17-2.29,4.33-4.6,7.13-7.58-2.94-1.73-5.67-2.83-7.74-4.68-2.27-2.04-3.72-4.97-5.91-7.13-4.68-4.65-13.29-4.26-17.93.61-10.67,11.19-21.16,22.56-32.09,33.49-3.59,3.6-5.05,7.39-4.96,12.21.06,3.44,10.52,14.44,13.94,14.48.14,0,.28-.02.42-.03,7.02-.22,12.49-3.03,15.99-9.63-2.1-1.91-4.2-3.82-6.49-5.91-2.62,2.78-4.9,5.19-7.34,7.77-2.68-2.55-5.18-4.93-8.11-7.73ZM117.99,45.72c1.33,2.93,2.4,5.28,3.5,7.72,1.64-.47,2.94-.83,4.49-1.27,7.26,17.09,14.47,34.04,21.65,50.94-1.55.98-2.69,1.69-4.11,2.58,1.12,2.5,2.16,4.84,3.34,7.49,9.82-4.11,19.25-8.05,28.99-12.13-2.63-6.18-5.04-11.85-7.55-17.74-3.08,1.36-5.54,2.45-8.16,3.6,1.39,3.48,2.6,6.5,3.88,9.72-2.7,1.07-4.98,1.98-7.58,3.01-7.32-17.21-14.53-34.16-21.77-51.18,1.53-.86,2.69-1.52,4.19-2.37-1.19-2.61-2.3-5.06-3.49-7.67-5.91,2.48-11.39,4.79-17.39,7.31Zm141.23.39c-6.8,17.52-13.46,34.69-20.09,51.76-1.95-.54-3.36-.93-5.01-1.39-.99,2.69-1.88,5.1-2.89,7.84,6.08,2.33,11.73,4.49,17.72,6.78,1.11-2.92,2.06-5.41,3.01-7.89-1.59-.84-2.67-1.42-3.94-2.1,6.67-17.23,13.27-34.3,19.93-51.52,1.61.33,2.9.59,4.48.91,1.04-2.64,2.02-5.12,3.09-7.83-6.27-2.37-11.93-4.5-17.99-6.79-1.08,2.96-1.99,5.47-2.91,8.01,1.8.87,3.04,1.46,4.61,2.22Z"/></svg>