<?xml version="1.0" encoding="UTF-8"?><svg id="Layer_1" xmlns="http://www.w3.org/2000/svg" viewBox="0 0 400 400"><g id="VTRJxV.tif"><path d="m0,205.26c.46.1.63-.1.61-.55-.03-.6.06-1.22-.07-1.79-.22-.97.54-1.6.71-2.43.03-.16.58-.21.98-.33-.25-1.09.52-1.89,1.03-2.79.05-.1.08-.22.08-.33.03-1.01.61-1.77,1.15-2.56.41-.6.77-1.24,1.07-1.89.32-.71.74-1.22,1.41-1.18.37-.55.63-1.04.99-1.45.5-.57,1.07-1.08,1.61-1.63.14-.15.33-.3.38-.48.29-.99.85-1.55,1.96-1.42.13.02.31-.15.43-.27.54-.53.98-1.32,1.63-1.57,1.12-.42,1.71-1.92,3.29-1.41-.35-1.48,1.02-1.17,1.6-1.65.54-.46,1.26-.7,1.9-1.04.08-.04.17-.11.25-.11,1.45.01,2.47-.99,3.68-1.54.22-.1.49-.12.73-.14.41-.02.82,0,1.27,0,.02-.38.03-.7.05-.97.5-.49,1.45.4,1.73-.63.51-.34,1.41.44,1.7-.62h2.07c-.04-.59.34-.58.75-.56.51.02,1.02.03,1.53,0,.23-.02.45-.18.68-.28-.02-.08-.04-.17-.06-.25h3.18c-.02-.08-.04-.16-.05-.23.27-.11.53-.31.8-.32.9-.04,1.81,0,2.71-.03.22,0,.44-.19.66-.29l-.05-.25c1.64,0,3.28,0,4.93,0,1.18,0,2.36,0,3.55,0,.41,0,.87.15,1.12-.41.03-.08.53-.02.77.07.19.08.3.31.52.55.11-.22.14-.42.25-.46.26-.1.73-.26.79-.17.39.55.92.42,1.44.42,2.69,0,5.38,0,8.07,0,.31,0,.73-.16.79.4,0,.07.3.14.47.14,1.09.01,2.18,0,3.27,0,.3,0,.68-.12.72.4,0,.06.3.14.47.14,1.11.01,2.23-.01,3.34.02.25,0,.5.21.75.32-.02.07-.04.15-.05.22.9,0,1.8-.02,2.7.01.19,0,.36.21.55.31.14.08.28.21.42.21.58.02,1.16,0,1.74.01.28,0,.63-.1.66.39,0,.06.29.15.45.16.58.02,1.16-.02,1.74.02.24.02.46.19.69.29-.02.08-.04.16-.06.24h1.57c.02.38.04.71.07,1.08h1.06c.02-.33.04-.65.07-1.03h1.51l-.06-.24c.27-.12.52-.29.8-.34.31-.06.65.03.97-.03.28-.05.53-.22.8-.33-.02-.07-.04-.14-.06-.21h2.56c-.02-.07-.04-.14-.05-.21.27-.11.53-.32.8-.32,3.8-.02,7.6-.02,11.41,0,.31,0,.73-.15.79.41,0,.07.37.16.53.13,1-.22,1.79.34,2.57.76.43.23.64.84.95,1.28-.05.06-.1.13-.15.19h1.57l-.17.19c.29.45.5.98.89,1.32.38.32.46.64.45,1.07-.02.6-.04,1.2,0,1.8.07.92-.05,1.7-.9,2.28-.23.15-.22.64-.34,1.04-.07,0-.2.06-.33.04-.72-.1-1.2.18-1.74.68-.63.59-1.41,1.07-2.41,1.01-1.11-.07-2.22-.02-3.34-.02-.95,0-2-1.13-2.08-2.08-.1-1.06.17-1.94,1.08-2.49.48-.29,1.07-.39,1.7-.61.01-.17.03-.48.06-.88h3.85c0-.84.02-1.6-.01-2.35,0-.18-.14-.42-.29-.51-.75-.45-1.42-1.1-2.41-1.04-.58.03-1.16.03-1.74,0-.23-.02-.45-.19-.68-.29.02-.07.04-.15.06-.22h-2.07c.02.06.03.13.05.19-.27.11-.54.31-.82.32-.85.04-1.71.02-2.57.02.02.07.03.14.05.21-.27.11-.53.29-.81.33-.43.06-.88,0-1.32.02-.35.01-.8-.17-.92.43-.02.08-.41.1-.63.12-.27.02-.55,0-.88,0-.03.36-.06.69-.1,1.04-.42.17-1.05-.14-1.22.54-.02.06-.35.11-.51.07-.99-.23-1.73.37-2.54.72-.83.35-1.49,1.12-2.54.93-.14-.02-.32.22-.48.33-.41.27-.83.52-1.23.8-.13.09-.29.23-.31.38-.14.71-.58,1.07-1.26,1.29-.36.12-.63.51-.96.74-.23.15-.52.35-.75.32-.53-.08-.83.15-1.2.48-.53.49-1.18.83-1.74,1.3-.31.26-.52.62-.77.94-.28.35-.51.75-.85,1.04-.61.51-1.31.91-1.9,1.43-.63.54-1.2,1.15-1.76,1.77-.23.26-.36.61-.55.91-.1.16-.22.33-.37.43-.33.22-.74.34-1.03.6-1.11.95-2.05,2.03-2.5,3.47-.08.26-.39.44-.56.69-.2.29-.33.62-.53.91-.13.18-.31.41-.5.44-.63.08-.89.52-1.12,1.01-.06.12-.04.33-.13.38-1.11.61-.98,1.87-1.44,2.8-.62,1.27-1.7,2.45-1.15,4.11h-1.19c0,.34.01.63,0,.92-.02.32.14.72-.41.8-.07.01-.13.26-.14.41-.02.46,0,.92-.01,1.38-.02.37.11.8-.42.98-.08.03-.12.28-.13.42,0,1.15-.02,2.31,0,3.46,0,.21.21.42.33.63.07-.02.14-.04.21-.06,0,.32,0,.64,0,.95.01.28-.11.63.37.67.07,0,.16.24.17.38.02.39,0,.77.17,1.04.44.29.92.54,1.3.89.75.71,1.69,1.09,2.54,1.61.88.54,1.74.42,2.63.47.29.02.63-.08.64.4,0,.05.25.14.39.14,2.32,0,4.64.02,6.95-.01.2,0,.4-.26.53-.54h3.12c-.02-.07-.04-.14-.05-.21.27-.11.52-.28.8-.32.34-.06.7.02,1.04-.03.24-.03.45-.19.68-.29-.02-.08-.04-.17-.06-.25.3,0,.59.01.89,0,.31-.01.72.15.77-.41,0-.06.27-.13.42-.13.37-.02.75.04,1.11-.01.24-.04.46-.21.69-.33.06-.03.09-.11.15-.13.64-.25,1.28-.49,1.98-.75.02-.25.05-.56.1-.99.42,0,.82.02,1.23,0,.39-.03.92.24,1.03-.44,0-.02.03-.05.05-.05,1.09.2,1.41-1.02,2.34-1.27.56-.15,1.08-.48,1.72-.48.15,0,.31-.23.44-.37.38-.4.72-.87,1.4-.71.15-1.32,1.31-1.84,2.04-2.68.05-.06.17-.08.25-.08,1.85-.04,2.47-1.59,3.36-2.76.37-.48.61-.96,1.27-1.15.33-.09.63-.44.86-.74.47-.58.89-1.2,1.33-1.8.15-.2.43-.43.4-.6-.14-.81.34-1.28.84-1.77.14-.14.25-.34.31-.53.25-.76.72-1.22,1.35-1.2.74-1.29,1.4-2.49,2.13-3.66.43-.69,1.03-1.28,1.41-2,.21-.39.11-.93.16-1.46h3.25c.02.31.04.62.06,1,1.59-.1,1.72,1.31,2.1,2.24.21.51-.32,1.36-.61,2.01-.48,1.06-1.01,2.11-1.56,3.14-.31.59-.75,1.06-1.3,1-.45.6-.83,1.08-1.18,1.58-.12.17-.27.4-.25.58.06.61-.15,1.05-.63,1.43-.22.17-.35.48-.48.74-.46.91-1.05,1.66-2.24,1.79,0,.25.05.53-.01.79-.09.33-.25.65-.42.95-.21.37-.45.72-.7,1.06-.17.24-.38.46-.54.7-.4.61-.79,1.24-1.23,1.93h2.29c0-.84.72-.38,1.16-.58-.27-1.32,1.01-1.14,1.63-1.52,1.35-.83,2.97-1.22,4.02-2.55.1-.13.31-.19.47-.28.29-.16.78-.28.84-.5.22-.85.97-1.05,1.52-1.54,1.21-1.09,1.98-2.54,2.69-4,.24-.49.43-1.01.71-1.48.31-.51.73-.92,1.26-.81.3-.49.51-.94.82-1.29.34-.37.63-.7.55-1.26-.03-.18.05-.44.17-.58,1.07-1.14,2.14-2.25,3.61-2.94.92-.43,1.82-.68,2.85-.54.02-.41.04-.72.05-1.08h3.85c0,.43,0,.84,0,1.25,0,.07,0,.19-.03.2-.94.34-.29,1.2-.61,1.79-.94-.08-1.46.41-1.64,1.33-.02.1-.1.21-.19.29-1.03.88-1.25,2.22-1.94,3.29-.17.27-.34.53-.51.8-.23.37-.44.76-.69,1.12-.11.15-.26.34-.42.38-.93.27-1.15.55-1.22,1.45-.02.28-.19.58-.37.82-.46.61-1.26.97-1.37,1.85,0,.06-.06.14-.11.17-.81.56-1.13,1.33-.88,2.34-1.04-.09-1.56.36-1.75,1.26-.04.2-.28.35-.4.55-.42.65-.84,1.3-1.22,1.97-.1.17-.05.42-.08.64.77-.24,1.47-.46,2.26-.71,0-.66.68-.26,1.12-.42.02-.19.02-.39.06-.58.02-.13.05-.34.13-.37.64-.24,1.29-.49,1.96-.63.34-.07.61-.07.88-.38.29-.33.77-.51,1.16-.77.15-.1.31-.2.44-.32.47-.45.94-.89,1.37-1.37.33-.38.69-.59,1.21-.5.41.07.56-.12.73-.51.31-.73.76-1.4,1.19-2.07.2-.3.51-.53.78-.79.75-.73,1.7-1.36,1.21-2.67,1.38,0,1.92-.87,2.39-1.84.09-.18.19-.38.35-.51.5-.4.76-.87.7-1.54-.02-.23.23-.54.44-.71.49-.39.74-.84.65-1.48-.05-.36,0-.74-.01-1.11,0-.28.1-.62-.35-.68-.06,0-.15-.14-.15-.21.04-.89-.38-1.83.36-2.64.19-.21.17-.6.36-.8.27-.29.62-.54.98-.7.54-.23.94-.5,1.06-1.13.04-.21.32-.42.54-.54.46-.24,1.04-.32,1.4-.66.73-.68,1.56-.39,2.47-.47,0,.48,0,.93,0,1.38,0,.06-.03.18-.06.19-.78.16-.37.78-.49,1.2-.17.61-.32,1.23-.59,1.8-.48.99-1.06,1.92-1.55,2.9-.1.19-.05.64.1.75.88.64,1.78,1.27,2.73,1.8.61.33,1.32.48,2.05.73-.22.88.72,1.24,1.24,1.83.97,1.1,1.16,2.37,1.02,3.75,0,.05,0,.12-.03.13-.86.3-.34,1.04-.53,1.55-.25.68-.5,1.39-.94,1.95-.63.81-1.71,1.35-1.2,2.71-1.12-.09-1.52.49-1.84,1.33-.18.48-.7.85-1.11,1.21-.41.36-.6.74-.41,1.27,1.79.22,2.69.31,2.78-1.58.79.26,1.19-.31,1.66-.78.18-.17.49-.32.72-.29.55.06.88-.14,1.24-.54.46-.51.9-1.07,1.68-1.25.44-.1.81-.53.79-1.16,0-.35.25-.73.45-1.07.25-.45.56-.87.95-1.47.82.11,1.23-.61,1.54-1.49.08-.22.36-.36.49-.58.18-.32.3-.67.44-1.01.12-.29.18-.61.35-.86.48-.69.95-1.39,1.51-2.01.35-.39.85-.65,1.29-.97.05.05.1.1.15.15,0-.11.04-.23.03-.33-.07-.65.19-1.09.62-1.62.85-1.05,1.49-2.27,2.17-3.45.26-.45.39-.97.61-1.44.06-.12.22-.26.35-.28,1.01-.13,1.48-.9,1.86-1.66.72-1.46,1.45-2.97,2.71-3.99.87-.7,1.92-1.09,1.84-2.44.78-.79,1.54-1.59,2.35-2.35.36-.34.81-.57,1.38-.95.25-1.44,3.63-5.18,4.87-5.25.52-1.32,1.35-2.26,2.69-2.81.48-.2.8-.75,1.22-1.1.25-.21.56-.37.87-.49.74-.3,1.05-.83.95-1.68,1.1.27,1.45-.65,2.06-1.15.23-.18.5-.5.71-.47.77.1,1.25-.25,1.69-.8.14-.17.42-.26.65-.33.65-.18.97-.64,1.02-1.67.84.23,1.27-.35,1.74-.88.07-.08.2-.2.28-.19,1.28.16,2.16-.77,3.16-1.25.74-.36,1.4-.45,2.15-.45.09,0,.2.02.27-.03.49-.31.94-.69,1.46-.92.42-.18.93-.17,1.44-.25.02-.29.03-.61.05-.91.71-.42,1.72.35,2.41-.64h1.3c-.02-.08-.03-.15-.05-.23.31-.12.62-.3.94-.33.64-.05,1.29-.02,1.94-.02-.02-.07-.04-.14-.05-.21.27-.11.52-.3.8-.32.53-.05,1.07.02,1.6-.03.23-.02.46-.19.68-.29-.02-.08-.04-.16-.06-.24h5.46c.01-.22.02-.39.03-.57,1.67,0,3.34,0,5.01,0v.56c1.09,0,2.15-.02,3.21.02.23,0,.46.23.69.34.15.07.3.17.45.18.42.03.83,0,1.25.01.14,0,.38.01.39.07.17.69.75.37,1.16.5.56.18,1.08.47,1.62.72.37.17.73.34,1.02.48.25.44.46.88.75,1.25.13.17.44.3.66.28.54-.04.91.17,1.26.56.49.55,1.1,1,1.55,1.58.61.79,1.22,1.64.99,2.72-.12.57-.31,1.22-.69,1.63-.38.41-1.02.63-1.59.81-.55.18-1.3-.37-1.54-1.03-.28-.76-.53-1.52-.82-2.35-.77.06-1.13-.51-1.49-1.27-.4-.84-.99-1.62-2.04-1.57-.15-.41-.25-.78-.42-1.1-.23-.42-.61-.58-1.11-.52-.35.04-.72.1-.9-.41-.05-.14-.62-.06-.94-.14-.28-.07-.55-.22-.82-.34.02-.07.03-.14.05-.21h-2.56c.02-.07.04-.14.06-.21-.27-.11-.54-.33-.81-.33-2.34-.03-4.68-.02-7.02-.01-.32,0-.73-.14-.76.42,0,.05-.32.12-.49.12-.7.01-1.39,0-2.09.01-.31,0-.73-.16-.76.42,0,.05-.27.12-.42.13-.53.02-1.07,0-1.6.01-.31,0-.7-.14-.8.4-.02.1-.48.11-.74.15-.34.06-.83-.21-.89.44,0,.05-.28.1-.43.1-.55.01-1.1,0-1.7,0-.02.36-.04.68-.06,1.06-.91-.16-1.46.89-2.46.64-.2-.05-.55.48-.83.73-.13.12-.27.32-.4.32-1.3-.06-2.19.67-3.09,1.46-.22.19-.58.22-.95.35.32,1.27-1.02.93-1.54,1.45-.36.36-.9.54-1.28.88-.7.63-1.32,1.37-2.04,1.98-.59.51-1.18.94-1.67,1.61-.81,1.11-1.92,1.99-2.92,2.95-.19.18-.49.25-.69.42-.33.26-.67.54-.93.86-.3.36-.49.81-.78,1.18-.82,1.03-1.69,2.02-2.5,3.06-.18.24-.21.59-.32.92-.26.02-.54.05-.81.07.04.04.09.08.13.12-.34.48-.7.95-1.03,1.44-.84,1.26-1.74,2.48-2.49,3.8-.49.86-.69,1.17-1.62,1.31-.12.33-.14.73-.36.94-.53.53-.97,1-.93,1.87.02.35-.58.71-.87,1.1-.28.38-.52.78-.77,1.18-.36.55-.73,1.09-1.58.94-.02.2-.07.38-.05.54.08.63-.22,1.02-.63,1.5-.64.74-1.09,1.65-1.62,2.48-.09.14-.14.31-.25.41-.75.66-1.09,1.55-1.46,2.44-.07.17-.31.36-.49.38-.63.08-.88.52-1.11,1.01-.1.2-.14.47-.3.6-.57.48-1.01.99-.84,1.8.01.06-.01.14-.05.2-.56.77-1.08,1.57-1.72,2.28-.37.41-.93.65-1.41.96-.05-.05-.1-.09-.15-.14,0,.3.01.59,0,.89-.01.18-.02.39-.11.53-.4.6-.83,1.18-1.24,1.76-.48.68-.96,1.36-1.43,2.04-.03.05,0,.13,0,.23h3.29c0-.86.73-.39,1.14-.59,0-.91.59-1.28,1.35-1.67,1.31-.67,2.78-1.11,3.71-2.38.09-.12.24-.23.38-.29,1.15-.44,1.16-.44,1.32-1.53,1.6-.5,2.56-1.66,3.32-3,.59-1.04,1.47-1.45,2.66-1.62,0,.89-.37,1.62-.85,2.2-.73.89-1.6,1.66-2.45,2.44-.29.27-.77.35-1.04.64-.48.5-.83,1.13-1.3,1.64-.74.82-1.53,1.6-2.31,2.39-.06.06-.18.11-.25.09-.99-.25-1.43.53-2.03,1.04-.37.31-.8.54-1.21.8-.04-.05-.09-.09-.13-.14-.04.33-.07.67-.11,1-.04-.04-.08-.08-.12-.12-.37.23-.73.49-1.12.69-.15.08-.36.04-.54.06-.38.06-.89-.23-1.05.45-.02.09-.55.07-.84.1-.31.03-.73-.15-.77.41,0,.06-.27.13-.41.13-1.46,0-2.92.02-4.38,0-.22,0-.47-.14-.66-.28-1.33-.95-2.07-2.17-1.72-3.87.02-.11-.01-.22-.02-.39-.11.03-.2.03-.26.08-.61.43-1.26.82-1.8,1.32-.39.36-.65.87-.96,1.3-.31.21-.65.44-1,.66-.05.04-.13.08-.19.07-.83-.24-1.49.27-2.09.62-1.74,1.02-3.59.26-5.37.47-.5.06-1.65-1.3-1.66-1.84-.01-1.13-.1-2.27.03-3.39.07-.64.38-1.35.81-1.82.63-.67,1.04-1.32.73-2.33,1.13.14,1.54-.46,1.9-1.3.31-.72.78-1.41,1.32-1.98.67-.71,1.02-1.55,1.39-2.41.15-.34.4-.66.46-1.02.07-.42.15-.88-.37-1.21-.18-.12-.16-.55-.19-.67-.54-.34-1.03-.57-1.41-.92-.76-.71-1.51-.54-1.9.46-.13.35-.39.65-.57.98-.37.65-.72,1.32-1.11,1.96-.65,1.06-1.41,2.01-2.82,2.37.45,1.18-.53,1.75-1.23,2.45-.57.57-1.12,1.17-1.73,1.7-.35.31-.81.49-1.18.78-.29.22-.62.45-.77.76-.66,1.41-1.75,2.38-3.09,3.1-.76.41-1.59.71-2.32,1.18-.36.23-.55.73-.81,1.11-.07.11-.12.36-.15.35-.79-.13-1.21.92-2.07.64-.14-.04-.36.19-.55.29-.14.08-.28.21-.43.23-.37.03-.74.01-1.11.01.02.07.04.14.05.21-.27.12-.54.31-.82.33-.72.05-1.46-.11-2.15.04-1.74.37-2.68-.75-3.67-1.8-.15-.16-.18-.46-.19-.71-.03-.66,0-1.32-.08-2.06-.52.71-1.22.68-1.94.71-.17,0-.31.32-.5.45-.39.28-.81.53-1.21.79-.05-.05-.1-.09-.14-.14-.03.33-.06.67-.09,1.02-.46.13-1.04-.09-1.25.55-.03.08-.39.03-.59.07-.35.06-.88-.24-.97.44,0,.06-.37.09-.57.11-.3.02-.6,0-.9,0,.02.08.03.16.05.24-.3.11-.59.29-.89.3-1,.04-1.99.01-2.99.01-1.42,0-2.4-.97-2.4-2.37,0-.69,0-1.38,0-2.06-.1-.02-.17-.05-.18-.04-.44.61-1.19.42-1.72.67-.6.29-1.05.97-1.46,1.56-.19.27-.2.55-.66.61-.34.04-.62.48-.96.71-.23.15-.51.35-.75.34-.53-.02-.87.14-1.27.51-.49.46-1.1.81-1.72,1.1-.74.34-1.53.56-2.4.86-.01.14-.04.45-.05.57-1.24.67-2.35,1.32-3.5,1.85-.41.19-.95.09-1.43.11-.28.01-.6-.09-.68.37-.02.09-.38.13-.59.18-.39.09-.97-.28-1.09.47,0,.05-.29.08-.45.08-.53.01-1.06,0-1.55,0-.56,1.11-1.58.23-2.22.77-.27.11-.54.31-.81.32-1.23.04-2.45.02-3.75.02-.02.36-.04.69-.07,1.11-.93,0-1.85,0-2.77,0s-1.8,0-2.73,0c-.02-.38-.03-.7-.05-1.11-1.11,0-2.22.02-3.32-.01-.24,0-.47-.2-.7-.31.03-.08.06-.15.08-.23-.27,0-.55-.03-.82,0-.99.13-1.68-.51-2.46-.93-.12-.06-.23-.17-.35-.17-1.46-.02-2.47-.86-3.39-1.83-.31-.32-.51-.74-.74-1.13-.26-.44-.56-.77-1.1-.97-.42-.15-.79-.59-1.05-.99-.49-.76-.76-1.61-.6-2.55-1.04-.9-.45-2.09-.53-3.14-.09-1.15-.02-2.3-.02-3.46,0-.28,0-.55,0-.83,0-.14,0-.35.08-.39.6-.32.44-.88.48-1.38,0-.13.03-.36.09-.38.67-.19.41-.72.45-1.13.04-.49-.13-1.03.48-1.32.04-.02.08-.12.07-.18-.06-.77.4-.88.94-.79.87-1.74,1.49-3.55,2.74-5.04.41-.48.68-1.09,1.1-1.55.31-.34.78-.53,1.3-.87-.29-1.03.63-1.65,1.36-2.37.46-.45.96-.88,1.38-1.37.33-.4.57-.88.94-1.46.7.14,1.12-.6,1.66-1.13.63-.61,1.2-1.31,1.89-1.83.63-.48,1.4-.78,2.23-1.22.24-.92.84-1.76,2.06-2.02.11-.02.21-.16.3-.27.44-.53.93-.97,1.7-.81.11.02.29.02.33-.04.43-.67,1.14-.92,1.77-1.32.37-.23.51-.82.81-1.35.57.16.99-.32,1.42-.81.13-.15.38-.36.5-.31.86.3,1.33-.53,2.05-.65.61-.1,1.18-.45,1.87-.73,0,.04.03-.21-.03-.23-.6-.23-1.2-.53-1.83-.61-.8-.1-1.62-.02-2.48-.02,0-.56-.34-.59-.77-.56-.51.03-1.02.04-1.53,0-.24-.02-.46-.19-.68-.3l.06-.24c-1.06,0-2.13.02-3.19-.02-.27,0-.53-.21-.8-.32.02-.07.04-.14.05-.21h-5.9c.02-.07.04-.14.06-.21-.27-.12-.53-.33-.8-.33-5.89-.02-11.78-.01-17.66-.01-.31,0-.67-.09-.69.42,0,.05-.31.12-.48.13-1.07.01-2.13,0-3.2,0,.02.07.03.14.05.21-.34.12-.67.3-1.01.33-.62.05-1.25.02-1.82.02-.56,1.11-1.57.23-2.22.75-.27.12-.54.29-.82.34-.36.06-.74-.02-1.11.03-.17.02-.32.2-.49.3-.14.09-.28.21-.44.23-.37.03-.74.01-1.16.01-.02.37-.04.7-.07,1.07-.22.01-.43.07-.62.03-1.08-.2-1.89.41-2.76.87-.54.29-1.14.49-1.65.82-.61.4-1.42.32-1.92.62-.73.42-1.96.54-1.97,1.81,0,.09-.11.22-.2.26-.82.39-1.65.75-2.47,1.14-.33.16-.63.36-.93.56-1.11.75-2.21,1.5-3.31,2.25-.07.05-.19.1-.2.17-.22,1.18-1.27,1.71-2.02,2.46-.89.9-1.61,1.86-2.01,3.06-.05.16-.28.26-.44.37-.35.26-.81.45-1.04.79-.45.68-.78,1.44-1.15,2.17-.06.12-.05.27-.1.4-.25.69-.51,1.38-.77,2.07-.11.31-.27.6-.34.92-.07.34.06.75-.45.9-.08.02-.11.32-.11.49-.01.71,0,1.42,0,2.18-.38.02-.72.04-1.08.06v6.03c.33.02.67.04,1.1.07-.15,1.07-.02,2.1.6,2.98.55.79.57,2.13,2.03,1.98.47,1.62.79,1.83,2.36,1.57,0-.09.01-.23-.03-.26-.7-.42-.53-1.1-.53-1.72,0-1.68-.02-3.37.02-5.05,0-.23.24-.45.36-.67.07-.13.16-.27.17-.41.02-.44-.01-.88.02-1.31.03-.41-.23-.96.46-1.11.05-.01.1-.21.08-.31-.21-.99.19-1.84.72-2.58.44-.61.39-1.23.41-1.89,0-.2.02-.4.03-.65h.81c.36-.56.66-.99.93-1.44.34-.56.66-1.14,1-1.71.48-.8.96-1.6,1.43-2.4.12-.2.18-.43.32-.6.26-.34.5-.81.86-.93.98-.34,1.45-1.08,1.98-1.88.73-1.1,1.62-2.09,2.86-2.72.79-.4,1.49-.96,2.21-1.47.16-.11.33-.32.35-.5.06-.54.45-.58.81-.84.61-.43,1.18-.47,1.83-.5.07,0,.15-.09.2-.16.56-.84,1.56-1,2.32-1.52.75-.51,1.52-.55,2.35-.53.11,0,.22-.17.33-.24.16-.11.32-.22.5-.29.1-.04.28.01.33-.05.66-.8,1.58-.41,2.45-.55.02-.33.05-.66.07-1.03h6.6c.02.32.04.65.06,1.03.24.01.47.04.69.03,1.16-.09,2.05.47,2.9,1.15.55.44,1.15.8,1.73,1.21.13.09.28.19.36.32.43.76,1,1.45.98,2.41-.03,2.12,0,4.24-.02,6.36,0,.29.11.66-.38.77-.09.02-.14.34-.17.53-.05.43.11.9-.46,1.2-.17.09-.13.59-.19.95-.31.02-.63.05-1.03.08.29,1.41-.83,2.35-1.21,3.55-.04.14-.18.28-.3.37-.53.4-.66.9-.76,1.56-.12.84-.89,1.33-1.67,1.68-.17.08-.37.16-.47.31-.3.42-.54.87-.82,1.3-.36.54-.7,1.11-1.13,1.6-.65.72-1.32,1.44-2.08,2.03-.74.58-1.64.96-2.42,1.49-.33.22-.65.56-.78.92-.25.64-.64.98-1.27,1.24-.91.37-1.76.87-2.64,1.3-.63.31-1.32.54-1.89.94-.56.39-1.12.48-1.77.54-.4.04-.77.44-1.16.68-.06-.05-.12-.1-.17-.15-.02.33-.04.67-.06,1.09-.35,0-.69,0-1.03,0-.28,0-.62-.11-.66.37,0,.07-.29.16-.45.17-.49.02-.97-.01-1.46.02-.34.02-.83-.23-.88.43,0,.05-.28.1-.43.11-.42.01-.83,0-1.25,0-.12,0-.31-.03-.33.02-.49,1.01-1.4.34-2.1.52-.23.06-.5,0-.83,0,0,.46,0,.86,0,1.27,0,.09,0,.25.05.26.78.23.38.89.52,1.36.13.44.27.99.6,1.25.69.53.41,1.24.52,1.91.34.03.68.06,1.02.08.17,1.66,1.33,2.67,2.39,3.74.17.17.27.41.42.59.32.39.64.79,1.01,1.13.26.24.61.39.92.58.92.58,1.88,1.12,2.74,1.77.61.46,1.25.48,2.01.42.02.38.03.71.05,1.13.31,0,.61-.01.9,0,.31.02.73-.15.79.41,0,.07.35.1.54.14.41.09,1.01-.28,1.16.48,0,.05.3.07.45.07.7,0,1.39-.03,2.09.02.3.02.59.2.88.31-.02.07-.03.14-.05.21h7.57c-.02-.07-.04-.13-.06-.2.27-.11.52-.3.8-.33.53-.05,1.07.01,1.6-.03.23-.02.45-.18.68-.28l-.06-.24h2.11c-.03-.91.7-.45,1.13-.64.03-.31.06-.62.09-1.04.3,0,.59,0,.88,0,.33,0,.72.15.8-.38.01-.06.14-.16.21-.15.7.11.95-.61,1.43-.79,1.04-.4,1.67-1.24,2.47-1.9.39-.32.79-.11.81.38.03.55,0,1.1,0,1.4-.58.36-1.09.55-1.43.9-.77.8-1.7,1.3-2.71,1.7-.45.18-.88.42-1.41.67v.86c-.22.02-.4.07-.57.05-.94-.11-1.57.49-2.28.93-.16.1-.37.17-.56.18-.51.02-1.02,0-1.53.01-.28,0-.62-.1-.67.37,0,.08-.34.17-.52.17-1.11.02-2.23,0-3.34.02-.2,0-.39.2-.59.29-.19.09-.39.23-.59.23-1.27.02-2.55.03-3.82,0-.18,0-.36-.22-.55-.32-.16-.09-.34-.2-.51-.21-1.09-.02-2.18.01-3.27-.02-.27,0-.54-.21-.81-.32.02-.07.03-.14.05-.22-.41,0-.83.01-1.24,0-.36-.02-.81.17-.94-.44-.02-.08-.45-.08-.69-.11-.36-.06-.88.23-.97-.45,0-.05-.28-.1-.43-.1-.37-.01-.74,0-1.15,0-.03-.36-.05-.69-.07-.89-1.13-.54-2.18-1.03-3.22-1.54-.47-.23-.92-.52-1.4-.73-1.24-.57-2.16-1.44-2.72-2.7-.12-.27-.39-.57-.66-.67-1.31-.45-1.94-1.67-2.94-2.46-.08-.06-.16-.22-.14-.31.18-.85-.42-1.29-.87-1.87-.44-.57-.66-1.31-1.04-2.09-.16,0-.5-.03-.87-.05-.07-.48.06-.98-.48-1.33-.2-.13-.09-.73-.11-1.12-.01-.25,0-.5,0-.77-.42-.21-1.12.2-1.22-.58,0-.04-.3-.04-.46-.04-.79,0-1.58.02-2.36-.01-.37-.02-.95.28-1-.47,0-.03-.12-.09-.18-.08-1.12.16-1.88-.66-2.81-1-.65-.23-1.04-.38-.84-1.13-1.35-.13-1.93-1.24-2.72-2.01-.8-.78-1.38-1.76-1.18-3.02-.4-.02-.73-.05-.86-.05-.3-.51-.58-.87-.72-1.27-.12-.33-.08-.72-.1-1.09-.01-.37-.02-.74,0-1.11.02-.44-.19-.52-.56-.39v-3.32Zm37.35,5.85c.61-.38,1.05-.64,1.47-.93.68-.48,1.36-.95,2.01-1.47,1.1-.89,1.93-2.01,2.7-3.18.4-.61,1.2-.98,1.05-1.86,1.31-.16,1.52-.4,1.63-1.64.02-.22.17-.45.31-.64.24-.31.58-.55.76-.88.4-.69.74-1.41,1.07-2.14.34-.75.81-1.48.65-2.38,0-.03.05-.07.12-.16h.89c.28-.61-.32-1.45.6-1.81.05-.02.03-.26.03-.4,0-.58.02-1.15,0-1.73-.07-1.64.37-3.36-.76-4.79-.39-.2-.77-.46-1.16-.7-.63-.37-1.24-.93-1.91-1.03-1.16-.17-2.36-.05-3.54-.04-.14,0-.29.13-.42.21-.19.11-.36.3-.55.32-.7.07-1.35.03-2.06.45-1.57.92-3.28,1.58-4.92,2.36-.11.05-.21.19-.24.31-.25.98-.98,1.47-1.82,1.91-.73.37-1.48.78-2.07,1.32-.72.65-1.49,1.26-1.84,2.27-.23.66-.74,1.24-1.2,1.79-.25.3-.67.44-.99.69-.35.27-.95.61-.93.88.06.86-.39,1.34-.91,1.88-.3.32-.38.84-.67,1.17-.81.9-1.38,1.86-1.27,3.12.02.22,0,.44,0,.66-.42.02-.74.04-1.03.06-.09.35-.06.8-.26.93-.45.3-.34.7-.38,1.09-.03.23-.09.63-.2.66-.46.1-.33.43-.35.7-.04.48.1,1.19-.16,1.39-.54.41-.35.87-.39,1.33-.05.48.12,1.18-.14,1.39-.6.5-.4,1.06-.41,1.6-.03,1.37,0,2.75,0,4.17.97,0,1.84.03,2.72-.02.27-.01.53-.22.8-.33-.02-.07-.04-.14-.06-.21h2.56c.29-1.05,1.19-.28,1.75-.65.02-.3.05-.63.08-1.01h1.56c-.02-.06-.04-.11-.06-.17.18-.13.4-.39.54-.36.95.22,1.54-.53,2.31-.79,1.23-.42,2.2-1.5,3.63-1.46.08,0,.19-.04.24-.11.52-.61,1.37-1.02,1.25-1.78Z"/><path d="m310.11,179.21c.52-.04.52.39.46.83-.07.53.17.86.43,1.32.38.68,1.03,1.37.85,2.3-.07.36-.04.66.41.82.14.05.2.39.27.61.12.38.22.77.31,1.15.09.37.16.74.24,1.12.04.21,0,.53.14.63.89.64.97,1.62,1.17,2.55.05.21.08.54.21.6.54.24.49.67.45,1.11-.04.36-.15.69.34.92.18.08.18.57.24.88.08.42.14.84.21,1.27.1,0,.21,0,.31,0,.07-.29.2-.58.2-.88.03-1.06.02-2.12.02-3.18,0-6.04,0-12.08-.03-18.12,0-.48.14-.65.62-.65,2.73.02,5.47.03,8.2.01.46,0,.62.16.61.6-.02.94-.02,1.89-.02,2.84,0,15.08,0,30.15,0,45.23,0,.85,0,1.71.03,2.56.02.48-.15.64-.65.63-2.71-.02-5.42-.02-8.14,0-.53,0-.67-.2-.67-.7.04-3.55.06-7.1.08-10.65,0-.15-.05-.42-.11-.43-.65-.1-.43-.77-.65-.98-.57-.56-.36-1.24-.59-1.82-.21-.56-.64-1.03-.9-1.58-.18-.38-.27-.82-.34-1.24-.06-.34.09-.75-.46-.85-.1-.02-.17-.34-.18-.53-.03-.54.13-1.11-.46-1.5-.1-.07-.05-.35-.1-.52-.05-.16-.11-.44-.2-.45-.7-.09-.5-.55-.49-.99,0-.27-.19-.53-.31-.8-.07-.16-.24-.32-.24-.48,0-.44.01-.79-.53-.98-.14-.05-.14-.57-.16-.87-.02-.41.2-.93-.54-.94-.06,0-.14-.12-.16-.19-.22-.74-.42-1.48-.65-2.22-.07-.24-.18-.47-.29-.69-.08-.16-.3-.34-.27-.47.22-.9-.62-1.46-.7-2.27-.02-.19-.19-.37-.31-.58-.6.59-.54,1.66,0,2.12.18.15.34.45.34.68,0,6.13-.04,12.26-.05,18.39,0,3.53.02,7.05.02,10.58,0,.96,0,.96-.93.96-2.62,0-5.24,0-7.86,0-.47,0-.65-.11-.65-.62.03-13,.05-26,.06-39,0-3.87-.04-7.74-.08-11.62,0-.48.13-.64.63-.64,2.71.02,5.42.02,8.14.01.46,0,.7.12.67.63-.03.51-.2,1.08.47,1.37.06.02.11.18.08.25-.37,1.11.71,1.72.91,2.64.13.59.35,1.16.57,1.84Z"/><path d="m266.38,173.52c.28-.15.55-.31.83-.44.1-.05.27-.01.33-.08.59-.7,1.39-.48,2.13-.48,4.87,0,9.73.03,14.6-.03.82-.01,1.37.45,1.99.73,1.15.51,2.29,1.1,3.08,2.16.32.42.65.83.95,1.26.24.35.5.7.67,1.09.12.28.13.62.13.93,0,.54-.14,1.1.44,1.5.12.08.12.38.12.57,0,11.32-.02,22.63-.03,33.95,0,.41.02.83.05,1.24.04.51.06.99-.63,1.07.02.44.05.82.07,1.21.02.43.1.88-.43,1.1-.04.01-.07.07-.08.11-.16,1.33-1.3,1.96-2.09,2.83-.3.33-.74.52-1.11.78-.28.19-.55.39-.84.57-.13.08-.29.09-.43.15-.27.12-.53.25-.8.38-.18.08-.36.22-.54.22-5.24.01-10.47,0-15.71,0-.17,0-.44-.05-.48-.15-.24-.62-.73-.46-1.17-.4-.41.06-.72.02-.89-.42-.05-.13-.28-.3-.41-.28-.59.07-.85-.3-1.16-.7-.25-.32-.58-.6-.91-.84-.45-.32-.76-.67-.44-1.31-.71-.03-.8-.48-.78-1,0-.11.01-.28-.05-.33-.73-.56-.52-1.37-.52-2.08-.02-11.59,0-23.19,0-34.78,0-.67.05-1.34-.02-2-.14-1.32.47-2.36,1.04-3.48.44-.85,1.04-1.5,1.7-2.12.39-.37.91-.61,1.37-.9h.04Zm15.93,25.17s0,0,0,0c0-5.6,0-11.2,0-16.81,0-.78.04-1.52-.83-1.91-.16-.07-.24-.29-.38-.39-.18-.13-.4-.32-.6-.32-2.55-.02-5.1-.02-7.65,0-.29,0-.68.15-.83.37-.54.77-1.03,1.58-1.03,2.57,0,3.99,0,7.98,0,11.97,0,7.03,0,14.06,0,21.1,0,1,.94,2.15,1.86,2.16,2.76.03,5.52.02,8.27,0,.68,0,1.2-.58,1.2-1.24,0-5.83,0-11.67,0-17.5Z"/><path d="m333.02,218.74c-.11-.27-.33-.54-.33-.81-.02-11.32-.02-22.64-.02-33.96,0-1.61-.02-3.23.02-4.84,0-.35.22-.71.36-1.05.26-.64.55-1.27.81-1.9.3-.73,2.05-2.26,2.82-2.48.18-.05.33-.21.48-.32.03-.02.01-.12.04-.13.62-.25,1.24-.69,1.87-.69,4.47-.06,8.95-.04,13.42-.02.31,0,.62.21.93.33.15.06.3.22.43.19,1.06-.19,1.8.56,2.57,1,1.24.71,2.01,1.92,2.5,3.28.12.32.4.59.57.9.11.19.21.42.21.63.01,2.61,0,5.21,0,7.82,0,.44-.04.74-.63.74-2.48-.03-4.96-.03-7.44-.01-.53,0-.66-.15-.64-.68.06-1.68.06-3.36.08-5.05,0-.13-.05-.36-.1-.37-.75-.05-.56-.66-.73-1.1-.22-.55-.56-1-1.33-.97-1.71.06-3.43.08-5.14,0-.95-.05-1.31.5-1.68,1.15-.51.9-.65,1.85-.65,2.9.04,10.49.03,20.98,0,31.47,0,.52.45.86.45,1.2,0,.68.47.9.82,1.25.12.12.31.22.47.22,2.59.01,5.19,0,7.81,0,.02-.2.06-.35.06-.51-.03-3.6-.07-7.19-.08-10.79,0-.5-.16-.63-.64-.62-1.07.03-2.13-.01-3.2.02-.5.01-.63-.16-.63-.64.02-1.82.02-3.64,0-5.46,0-.5.13-.67.67-.67,3.94.02,7.88.02,11.82,0,.61,0,.73.21.72.76-.03,7.19-.03,14.39-.04,21.58,0,.88,0,1.75.03,2.63.01.42-.11.62-.59.62-6.7-.02-13.4-.01-20.1-.05-.28,0-.54-.32-.83-.45-.59-.28-1.19-.53-1.79-.79-.17-.07-.37-.1-.5-.21-.69-.61-1.36-1.23-2.03-1.86-.67-.62-.62-1.45-.6-2.27-.09,0-.18.01-.26.02Z"/><path d="m229.42,172.59c.17-.03.32-.09.48-.09,2.43,0,4.86.02,7.28.02,3.73,0,7.46.04,11.19-.07,1.05-.03,1.96.3,2.79.71,1.48.73,2.77,1.82,3.74,3.16.58.79,1.08,1.72.87,2.82-.07.38-.04.71.41.91.16.07.3.41.3.62.02,5.81.01,11.62.01,17.43,0,.11.03.3-.03.33-1.19.71-.61,2.19-1.38,3.1-.44.53-.73,1.18-1.13,1.74-.13.18-.41.25-.61.39-.45.3-.9.6-1.34.92-.13.09-.26.36-.31.35-.99-.39-1.61.62-2.52.61-3.22-.04-6.44-.02-9.67-.03-.21,0-.41,0-.7,0-.03.51-.07.99-.07,1.46.02,5.53.04,11.07.09,16.6,0,.59-.14.81-.77.8-2.67-.03-5.33-.04-8-.01-.7,0-.66-.37-.66-.83,0-10.54,0-21.07,0-31.61,0-6.34-.03-12.68-.04-19.02,0-.09.03-.18.04-.29Zm9.41,6.65v19.53c.34,0,.59,0,.84,0,1.95,0,3.89,0,5.84,0,.84,0,1.54-.66,1.54-1.48,0-5.56,0-11.11,0-16.67v-.68c-.06.05-.11.1-.17.15-.37-.24-.73-.49-1.1-.71-.13-.08-.29-.14-.44-.14-2.15,0-4.31,0-6.5,0Z"/><path d="m223.11,179.27c0,2.44,0,4.79-.02,7.13,0,.14-.26.4-.4.4-2.98.02-5.97.02-9.04.02,0-.31,0-.55,0-.8,0-1.73,0-3.46,0-5.19,0-1.18-.42-1.59-1.59-1.59-1.58,0-3.15-.02-4.73.02-.26,0-.52.23-.76.39-.15.1-.23.31-.38.39-.76.38-.86,1.03-.85,1.79.03,2.97.04,5.95.02,8.92,0,.82.28,1.26,1.06,1.62,2.05.95,4.04,2.03,6.05,3.05.1.05.21.15.31.15,1.38-.11,2.3.94,3.46,1.38,1.2.46,2.27,1.24,3.48,1.68.99.36,1.48,1.22,2.25,1.78.19.13.27.42.38.64.08.16.07.42.2.51.77.57.58,1.38.58,2.14,0,4.24,0,8.48,0,12.73v.96c-.75-.09-.91.27-.75.89.05.17,0,.37.02.55.12,1.01-.32,1.64-1.31,1.83.11.93-.37,1.53-1.17,1.83-.47.18-.86.57-1.28.88-.13.09-.26.37-.31.35-.99-.38-1.61.61-2.52.61-4.01-.03-8.02,0-12.03-.03-.27,0-.53-.24-.8-.34-.22-.09-.45-.14-.67-.21-.37-.12-.74-.25-1.11-.39-.1-.04-.18-.17-.28-.19-1.35-.19-1.83-1.48-2.8-2.15-.1-.07-.08-.29-.14-.42-.29-.6-.52-1.27-.82-1.79-.29-.5-.42-.93-.42-1.44-.02-1.79,0-3.59,0-5.43h8.63c0,.86.04,1.73-.01,2.59-.06.96.2,1.73.98,2.36.42.34.79.55,1.34.54,1.62-.03,3.25,0,4.87-.01.55,0,1.12-.52,1.12-1.05,0-3.97,0-7.93-.01-11.9,0-.04-.03-.09,0-.03-1.3-.59-2.54-1.15-3.77-1.72-1.15-.53-2.42-.92-3.39-1.68-.65-.5-1.21-.46-1.87-.56-.48-.07-.9-.47-1.36-.7-1.19-.59-2.48-1.05-3.55-1.8-1.07-.76-1.95-1.8-2.86-2.76-.16-.17-.12-.57-.12-.87,0-5.21,0-10.42-.01-15.63,0-.14-.04-.36.03-.4.72-.39.49-1.09.59-1.69.02-.12.15-.22.24-.32.28-.27.63-.5.85-.81,1.07-1.57,2.87-2.02,4.38-2.92.13-.08.31-.08.47-.08,4.27,0,8.53,0,12.8.02.2,0,.46.03.57.15.38.41.81.46,1.32.38.19-.03.42.1.6.22.5.34.94.78,1.47,1.04.57.27.99.54,1.05,1.23.02.22.16.54.34.63.98.51,1.1,1.33.96,2.28-.08.51,0,.89.74.82Z"/><path d="m375.44,201.22v16.21h.79c3.71,0,7.42.01,11.12-.01.59,0,.76.18.74.74-.04,1.31-.05,2.63,0,3.94.01.45.21.9.42,1.34-.25.58-.73.9-1.5.9-6.58-.03-13.16-.02-19.75-.03-.16,0-.31-.03-.52-.04v-51.77c1.22,0,2.45,0,3.67,0,5.47,0,10.94,0,16.41-.01.28,0,.56,0,.83.05.61.12.84.67.56,1.24-.1.22-.14.48-.14.73,0,1.34-.02,2.67.03,4.01.02.59-.18.74-.75.74-3.75-.02-7.51,0-11.26-.02-.56,0-.7.16-.7.71.03,4.54.04,9.08.02,13.62,0,.67.21.8.83.8,3.29-.03,6.58,0,9.87-.03.63,0,.77.19.75.79-.05,1.8-.05,3.59-.02,5.39,0,.55-.16.72-.71.71-3.31-.02-6.63,0-9.94,0-.23,0-.45,0-.74,0Z"/><path d="m393.94,179.21c0-1.68,0-3.31,0-4.95,0-.34.03-.69-.54-.49v5.42h-2.76v-5.48c-.5,0-.95-.02-1.4,0-.4.02-.54-.14-.49-.53.11-.97.88-1.68,1.84-1.68,1.6,0,3.2,0,4.8,0,.32,0,.79-.19.83.43,0,.05.23.11.36.11.39.01.78,0,1.12,0,.59-1.11,1.57-.22,2.32-.68v7.83h-2.16v-.85c-.58-.3-1.08-.55-1.65-.83v1.69h-2.25Z"/></g></svg>