<?xml version="1.0" encoding="UTF-8"?><svg id="Layer_1" xmlns="http://www.w3.org/2000/svg" viewBox="0 0 400 400"><path d="m46.94,226.75c7.38,0,14.53-.07,21.67.08.93.02,1.96,1.03,2.72,1.81,4.62,4.69,10.35,7.55,16.55,9.22,5.78,1.56,11.74,1.59,17.71.44,8.71-1.67,15.82-6.03,21.61-12.53,4.78-5.37,7.72-11.63,9.12-18.83,1.26-6.48.71-12.74-1.14-18.78-1.26-4.11-3.75-7.93-6.14-11.58-2.77-4.21-6.62-7.57-10.94-10.07-4.97-2.88-10.36-4.77-16.19-5.45-8.63-1.01-16.51,1.17-23.92,5.23-2.84,1.56-5.2,3.96-7.81,5.95-.56.43-1.22,1.01-1.83,1.02-7.08.07-14.15.05-21.67.05,3.32-6.45,7.56-11.79,12.72-16.35,11.7-10.34,25.53-15.49,41.05-14.66,27.86,1.49,48.6,21.01,53.73,45.18,3.53,16.64.5,32.28-9.55,46.32-7.88,11.01-18.44,18.43-31.38,21.88-34.15,9.1-58.96-12.96-66.3-28.91Z"/><path d="m277.17,251.97c-8.85,0-17.12.02-25.4-.05-.64,0-1.47-.5-1.87-1.02-5.12-6.7-10.18-13.45-15.25-20.19-4.21-5.6-8.39-11.23-12.63-16.82-4.52-5.97-9.11-11.88-13.63-17.85-4.62-6.1-9.16-12.25-13.8-18.33-5.38-7.04-10.86-14-16.22-21.05-2.24-2.94-4.3-6-6.64-9.29.96-.06,1.61-.13,2.27-.13,7.22,0,14.45.05,21.67-.05,1.68-.02,2.72.51,3.71,1.86,5.26,7.17,10.57,14.3,15.94,21.38,6.63,8.73,13.36,17.37,20.01,26.08,4.01,5.24,7.95,10.54,11.92,15.81,3.6,4.78,7.19,9.56,10.78,14.34,4.7,6.24,9.39,12.49,14.11,18.72,1.25,1.65,2.6,3.23,3.89,4.85.32.4.56.85,1.13,1.73Z"/><path d="m399.9,210.33c-.85,0-1.55,0-2.24,0-32.53,0-65.05-.02-97.58.04-2.08,0-2.8-.47-2.75-2.66.15-6.02.05-12.05.05-18.23h102.52v20.85Z"/><path d="m400,147.33v20.93c-.79,0-1.52,0-2.26,0-32.6,0-65.2-.02-97.8.04-2.02,0-2.65-.54-2.6-2.59.13-5.46.09-10.93.02-16.4-.02-1.5.38-2.11,2-2.1,33.16.04,66.32.03,99.48.03.34,0,.67.05,1.16.08Z"/><path d="m399.95,230.96v21.02h-2.14c-32.6,0-65.2-.02-97.8.05-2.16,0-2.74-.61-2.68-2.72.15-5.25.13-10.51,0-15.77-.05-2,.5-2.63,2.57-2.62,26.71.07,53.42.04,80.13.04,6.58,0,13.16,0,19.91,0Z"/><path d="m46.49,186.16c5.92.22,11.66-.18,17.14.82,5.43.99,8.69,4.82,9.35,11.02.41,3.8-.02,7.52-2.67,10.76-2.6,3.17-5.99,4.69-9.81,4.87-6.09.28-12.2.02-18.3.11-1.43.02-2.01-.6-2.37-1.77-.33-1.09-.68-2.18-1.03-3.27h-9.21c-.58,1.65-1.17,3.29-1.77,5-4.34,0-8.62.06-12.89-.06-.7-.02-1.58-.7-2.04-1.32-1.62-2.21-3.1-4.53-4.96-7.29v8.55H0v-26.76c5.53,0,11.09-.24,16.62.1,3.03.19,5.88,4.31,5.92,7.47.07,5.61-1.38,7.84-6.28,9.41.72,1.03,1.39,2.02,2.09,3,.72,1,1.45,1.98,2.31,3.14,2.89-7.48,5.78-14.79,8.5-22.16.46-1.24,1.03-1.42,2.1-1.4,2.03.04,4.07.07,6.1-.01,1.16-.05,1.64.36,2.06,1.48,2.22,6,4.56,11.95,7.07,18.49v-20.14Zm8.56,19.91c3.22-.02,6.61.94,8.73-2.45,1.59-2.54,1.41-5.45-.16-7.66-2.08-2.93-5.51-2.05-8.58-1.94v12.05Zm-47.16-8.77c1.69,0,3.17.18,4.58-.07.75-.13,1.58-.89,1.95-1.58.15-.28-.73-1.57-1.29-1.7-1.69-.37-3.45-.4-5.24-.56v3.91Zm28.4,4.13c-.71-1.96-1.37-3.77-2.11-5.79-.74,2.09-1.37,3.87-2.06,5.79h4.16Z"/><path d="m172.03,251.82v-79.28c.64.54,1.04.78,1.31,1.13,5.95,7.76,11.89,15.53,17.84,23.3,1.11,1.45,1.86,2.9,1.85,4.88-.08,15.84-.05,31.69-.05,47.53v2.45h-20.96Z"/><path d="m255.72,147.24c6.8,0,13.31,0,19.82,0,.34,0,.67.05,1.1.08v79.49c-1.44-1.67-2.62-2.89-3.63-4.23-4.67-6.2-9.3-12.44-13.95-18.66-.29-.39-.64-.73-.96-1.1-1.51-1.78-2.49-3.59-2.46-6.19.16-15.62.08-31.24.08-46.86v-2.54Z"/><path d="m98.02,185.94c7.34-.69,14.92,5.8,14.23,15.1-.54,7.21-5.75,13.23-14.7,13.07-9.31-.16-14.24-6.44-14.24-14.16,0-7.68,5.4-14.46,14.71-14.01Zm-.37,20.19c3.51.42,6.25-2.35,6.16-6.12-.09-3.85-2.6-6.57-6.22-6.52-2.92.04-5.92,3.25-6.02,6.43-.1,3.34,2.7,6.21,6.08,6.21Z"/><path d="m82.16,213.69c-2.32,0-4.49-.03-6.65.01-1.16.02-1.62-.44-1.62-1.61.02-8.46.01-16.93.01-25.56h8.26v27.16Z"/></svg>