<?xml version="1.0" encoding="UTF-8"?><svg id="Layer_1" xmlns="http://www.w3.org/2000/svg" viewBox="0 0 400 400"><path d="m400,199.78v1.02c-.06.67-.16,1.34-.16,2.01-.15,14.75-1.87,29.32-5.47,43.62-13.56,53.9-43.93,95.65-91.33,124.71-28.17,17.27-58.95,26.63-91.98,28.43-2.83.15-5.66.29-8.49.44h-5.34c-.5-.06-1-.13-1.51-.17-6.71-.46-13.45-.65-20.13-1.43-21.07-2.46-41.25-8.26-60.41-17.34-36.49-17.29-65.4-43.15-86.36-77.7C12.35,276.21,3.06,246.69.59,215.03c-1.04-13.38-.7-26.73.97-40.05,2.43-19.34,7.67-37.91,15.42-55.75,8.08-18.58,18.94-35.43,32.26-50.71,15.41-17.67,33.4-32.14,53.9-43.49C130.98,9.64,160.85,1.41,192.61.15c15.41-.61,30.73.57,45.86,3.62,40.09,8.1,74.65,26.64,103.55,55.56,19.35,19.37,33.89,41.96,43.96,67.41,7.94,20.09,12.45,40.94,13.56,62.52.18,3.5.31,7.01.46,10.51Zm-125.07-29.86c.07,0,.15,0,.22,0,0-18.46,0-36.92,0-55.38,0-1.89-.04-1.91-1.86-1.42-15.17,4.06-30.34,8.12-45.52,12.15-2.52.67-2.36.35-2.38,3.12,0,.25,0,.51,0,.76,0,29.98,0,59.96,0,89.94,0,5.83-.56,11.59-2.64,17.1-2.33,6.17-6.03,11.24-12.24,13.91-13.45,5.77-28.17-.6-33.31-14.28-1.93-5.15-2.62-10.49-2.61-15.95,0-25.87,0-51.74,0-77.61,0-.47-.03-.93,0-1.4.07-1.1-.42-1.3-1.4-1.02-2.24.64-4.49,1.22-6.74,1.82-13.3,3.54-26.59,7.09-39.89,10.58-1.28.34-1.77.87-1.76,2.24.05,22.4,0,44.8.06,67.2.03,10.03,1.64,19.82,5.12,29.25,4.99,13.55,13.28,24.59,25.34,32.65,9.46,6.32,19.94,9.99,31.16,11.59,13.81,1.98,27.48,1.42,40.82-2.9,21.02-6.81,35.23-20.77,42.73-41.51,3.74-10.35,5.05-21.08,4.95-32.07-.16-16.26-.04-32.52-.04-48.78Z"/></svg>