<?xml version="1.0" encoding="UTF-8"?><svg id="Layer_1" xmlns="http://www.w3.org/2000/svg" viewBox="0 0 400 400"><defs><style>.cls-1{fill:#fff;}</style></defs><path d="m218.76,400h-35.68c1.88-.2,3.77-.4,5.92-.63-.57-.13-.89-.23-1.21-.27-.66-.07-1.33-.14-1.99-.16-8.21-.35-16.38-1.1-24.45-2.75-31.79-6.5-60.51-19.6-85.84-39.95-22.89-18.39-41.13-40.61-54.14-66.95C9.59,265.42,1.72,240.44,1.36,213.51c-.01-1.07-.41-2.12-.62-3.19-.32.68-.29,1.29-.32,1.89C.28,215.04.14,217.85,0,220.67c0-13.22,0-26.44,0-39.67.18,2.42.36,4.83.55,7.25,3.27-50.45,22.65-93.84,58.32-129.38C94.41,23.45,137.44,3.42,188.11.91c-.04-.13-.08-.27-.12-.4C185.8.34,183.6.17,181.41,0c10.12,0,20.23,0,30.35,0,.79.35,1.56.92,2.39,1.01,6.67.75,13.39,1.15,20.02,2.14,11.84,1.77,23.35,4.96,34.55,9.16,19.01,7.13,36.5,16.95,52.8,29.08,15.21,11.32,28.26,24.7,39.51,39.86,10.85,14.62,19.38,30.53,25.88,47.55,8.61,22.56,12.88,45.92,13.08,70.01.07,7.64-.55,15.3-1.25,22.92-1.18,12.86-3.87,25.46-7.69,37.79-9.32,30.09-25.13,56.4-46.85,79.14-18.78,19.66-40.77,34.75-65.78,45.42-15.45,6.6-31.51,11.09-48.11,13.52-4.71.69-9.51.72-14.26,1.08-1.09.08-2.17.26-3.26.4.02.13.04.25.06.38,1.97.18,3.94.36,5.92.54Zm-84.79-130.47c1.72-.2,4.04-.45,6.35-.74,16.49-2.06,29.15-17.17,27.5-34.33-1.17-12.12-7.23-21.03-18.2-26.41-8.33-4.09-17.1-3.97-25.88-1.91-19.68,4.63-29.67,27.12-20.81,45,6.14,12.4,16.9,17.82,31.05,18.39Zm39.79-32.37s-.02,0-.03,0c0,.56,0,1.11,0,1.67-.01,8.77-.02,17.55-.03,26.32,0,2.23.39,2.73,2.14,2.74,5.83.02,11.67.18,17.5-.01,4.76-.16,9.59-.32,14.24-1.24,7.36-1.45,13.92-4.76,18.36-11.11,6.64-9.51,7.52-19.92,3.67-30.62-4.06-11.29-14.36-17.92-26.69-18.57-8.09-.43-16.22-.29-24.32-.38-4.76-.05-4.81-.04-4.83,4.72-.04,8.83-.01,17.66-.01,26.49Zm-67.94-82.81s.1,0,.15,0c0-1.94-.01-3.89,0-5.83.04-4.83.07-9.66.15-14.49.02-1.52-.5-2.19-2.14-2.16-4.61.09-9.22.02-13.83.04-3,.01-3.45.47-3.48,3.51-.03,3.17.02,6.33-.02,9.5-.1,8.99-.13,17.98-.38,26.96-.12,4.3-4.05,7.86-8.35,8.03-5.5.23-9.04-3.13-9.11-8.91-.11-10.22-.08-20.43-.13-30.65,0-2.16-.09-4.33-.13-6.49-.02-1.39-.71-1.97-2.1-1.96-4.39.03-8.78-.02-13.17.03-2.53.03-3.02.54-3.02,3.08-.02,13.05-.19,26.1.07,39.15.17,8.72,4.43,15.3,12.61,18.54,9.84,3.89,19.96,3.81,29.71-.39,8.51-3.67,13.11-10.34,13.17-19.8.04-6.05,0-12.1,0-18.15Zm181.3,113.6s0-.05,0-.07c2.5,0,5,.05,7.5-.01,2.17-.05,2.38-.42,1.62-2.39-.46-1.19-.97-2.36-1.42-3.55-6.73-17.91-13.47-35.83-20.15-53.76-.6-1.61-1.45-2.26-3.16-2.24-4.94.08-9.89.02-14.83.03-2.63,0-2.8.16-3.57,2.7-.18.58-.35,1.17-.57,1.74-5.34,14.23-10.69,28.46-16.03,42.69-1.6,4.26-3.2,8.51-4.75,12.79-.26.72-.98,1.93.66,1.94,5.22.03,10.44.01,15.65-.15.63-.02,1.52-.87,1.8-1.54.7-1.68,1.2-3.46,1.64-5.23.36-1.46,1.22-1.93,2.64-1.92,6.5.06,12.99.09,19.49.1,1.38,0,2.13.61,2.48,1.95.46,1.77,1.05,3.51,1.57,5.26.36,1.21,1.06,1.78,2.44,1.71,2.33-.12,4.66-.03,6.99-.03Zm-63.23-74.32c-.14-.56-.2-.93-.33-1.28-2.75-7.44-5.5-14.88-8.27-22.31-4.5-12.11-9.02-24.21-13.51-36.33-.48-1.3-1.34-1.8-2.65-1.8-5.17,0-10.33.01-15.5,0-1.53,0-2.43.63-2.98,2.11-3.14,8.42-6.36,16.81-9.53,25.22-3.99,10.59-7.94,21.19-11.91,31.79-.8,2.14-.64,2.4,1.66,2.41,4.5.01,9-.04,13.5.03,1.43.02,2.32-.42,2.76-1.81.42-1.32.94-2.61,1.37-3.93.79-2.42,1.09-2.65,3.7-2.6,2.11.05,4.22.15,6.33.14,3.94-.02,7.89-.07,11.83-.16,1.56-.04,2.49.54,2.91,2.09.45,1.66,1.1,3.26,1.6,4.9.38,1.26,1.13,1.72,2.46,1.7,4.94-.06,9.89-.02,14.83-.03.53,0,1.06-.08,1.73-.13Zm-92.23,1.6c5.95.1,10.21-.61,14.29-2.51,8.42-3.92,13.01-12.95,11.17-22.01-1.27-6.28-5.22-10.32-10.79-12.88-3.32-1.52-6.87-2.54-10.26-3.93-1.67-.69-3.34-1.53-4.78-2.6-1.45-1.07-1.73-3.44-.55-4.61.88-.89,2.15-1.63,3.37-1.9,4.82-1.1,8.94.62,12.68,3.56,1.64,1.29,2.06,1.22,3.27-.54,1.26-1.83,2.46-3.7,3.7-5.55,2.96-4.41,2.78-5.45-2.02-7.85-6.31-3.16-13.03-4.21-20.06-3.37-5.09.6-9.58,2.28-13.54,5.75-6.66,5.83-9.28,20.1.96,27.03,3.61,2.44,7.6,3.84,11.64,5.25,2.3.8,4.59,1.7,6.72,2.85,2.08,1.12,2.72,3.11,2.21,5.43-.54,2.44-2.9,4.1-6.11,4.2-5.22.17-9.63-1.76-13.5-5.15-1.88-1.65-2.49-1.57-4,.44-1.7,2.27-3.36,4.56-5.04,6.84-1.7,2.3-1.59,3.05.78,4.72,6.4,4.52,13.44,7.06,19.86,6.82Zm154.59,10.88c.16.52.19.75.29.93,6.75,11.68,13.46,23.38,20.29,35.02,1.42,2.42,2.35,4.81,2.28,7.67-.13,5.22-.07,10.44-.05,15.66,0,2.02.34,2.35,2.33,2.36,4.89.02,9.78-.01,14.67.01,1.44,0,2.24-.36,2.21-2.07-.09-5.44-.15-10.89.03-16.33.06-1.81.53-3.79,1.4-5.36,5.99-10.71,12.14-21.32,18.23-31.98,1.04-1.82,2-3.68,3.06-5.64-.55-.19-.9-.42-1.25-.42-5.39-.01-10.78-.04-16.17.07-.73.02-1.76.64-2.1,1.28-4.05,7.64-8,15.34-11.98,23.03-.2.38-.41.74-.66,1.18-.19-.2-.35-.3-.4-.43-3.13-8.24-7.55-15.82-11.81-23.48-.7-1.26-1.51-1.71-2.89-1.7-5.06.05-10.11,0-15.17.02-.7,0-1.4.1-2.32.18Zm-211.73-.18s0,.01,0,.02c-4.78,0-9.56,0-14.34,0-2.89,0-5.78,0-8.67-.02-1.53-.01-2.32.52-2.27,2.25.11,3.39.02,6.78.04,10.16.01,2.08.32,2.37,2.46,2.37,3.95,0,7.89,0,11.84.02,1.97.01,2.3.36,2.33,2.36.03,1.83.01,3.67.01,5.5,0,12.22,0,24.44,0,36.66,0,2.35.14,2.49,2.41,2.48,3.28,0,6.56-.02,9.84-.03,5.89-.02,5.2-.1,5.2-5.18.01-12.94-.07-25.88-.12-38.83-.01-2.79.16-2.98,3.02-3,3.83-.02,7.67,0,11.5,0,1.08,0,2.05-.19,2.05-1.58,0-3.94.03-7.88-.05-11.82,0-.42-.63-1.03-1.09-1.18-.72-.23-1.53-.18-2.31-.18-7.28-.01-14.56,0-21.84,0Z"/><path class="cls-1" d="m149.48,236.04c-.03-.39-.05-.78-.08-1.16-.51-6.51-3.9-11.14-9.84-13.46-6.13-2.39-11.98-1.34-16.74,3.43-4.25,4.26-5.14,9.58-4.4,15.39,1.54,12.13,14.93,16.81,23.79,11.37,5.83-3.58,7.51-9.14,7.27-15.57Z"/><path class="cls-1" d="m192.18,236.92c0,4.94.04,9.89-.02,14.83-.02,1.35.54,2.03,1.81,2.02,1.66,0,3.33-.04,4.98-.22,4.01-.45,7.68-1.65,10.5-4.79,3.52-3.91,4.16-8.64,3.81-13.56-.41-5.79-2.87-10.45-8.36-13.07-3.57-1.7-7.4-1.8-11.25-1.81-1.28,0-1.49.85-1.48,1.92.02,4.89,0,9.78,0,14.67Z"/><path class="cls-1" d="m263.88,222.99c-.13-.01-.26-.02-.4-.04-.65,2.33-1.26,4.67-1.96,6.99-1.33,4.4-2.71,8.78-4.07,13.17-.41,1.31.09,1.89,1.43,1.88,3.1-.02,6.21.02,9.31-.05,1.95-.04,2.4-.67,1.86-2.51-.62-2.13-1.34-4.22-2.01-6.33-1.39-4.37-2.78-8.74-4.16-13.11Z"/><path class="cls-1" d="m191,148.35c-2.2,7.14-4.29,13.91-6.37,20.67-.56,1.81-.47,2.02,1.46,2.09,3.05.1,6.1.07,9.15.07,2.54,0,2.76-.3,2.04-2.69-1.83-6.04-3.67-12.08-5.51-18.11-.19-.61-.46-1.2-.77-2.03Z"/><path d="m149.48,236.04c.24,6.43-1.44,11.99-7.27,15.57-8.86,5.44-22.25.76-23.79-11.37-.74-5.81.15-11.13,4.4-15.39,4.76-4.77,10.62-5.82,16.74-3.43,5.94,2.32,9.33,6.95,9.84,13.46.03.39.05.78.08,1.16Z"/><path d="m192.18,236.92c0-4.89.01-9.78,0-14.67,0-1.07.2-1.93,1.48-1.92,3.84,0,7.68.11,11.25,1.81,5.49,2.62,7.95,7.28,8.36,13.07.35,4.92-.29,9.64-3.81,13.56-2.83,3.15-6.49,4.34-10.5,4.79-1.65.18-3.32.22-4.98.22-1.27,0-1.82-.68-1.81-2.02.06-4.94.02-9.89.02-14.83Z"/><path d="m263.88,222.99c1.39,4.37,2.77,8.74,4.16,13.11.67,2.11,1.4,4.21,2.01,6.33.54,1.84.09,2.47-1.86,2.51-3.1.07-6.21.02-9.31.05-1.34,0-1.84-.57-1.43-1.88,1.36-4.39,2.74-8.77,4.07-13.17.7-2.32,1.31-4.66,1.96-6.99.13.01.26.02.4.04Z"/><path d="m191,148.35c.32.82.59,1.41.77,2.03,1.85,6.03,3.69,12.07,5.51,18.11.72,2.38.5,2.68-2.04,2.69-3.05,0-6.1.03-9.15-.07-1.93-.06-2.02-.28-1.46-2.09,2.08-6.76,4.17-13.52,6.37-20.67Z"/></svg>